<?xml version="1.0" encoding="UTF-8"?>
<svg width="1024" height="1024" viewBox="0 0 1024 1024" fill="none" xmlns="http://www.w3.org/2000/svg">
  <defs>
    <linearGradient id="bg" x1="148" y1="104" x2="864" y2="902" gradientUnits="userSpaceOnUse">
      <stop stop-color="#FBF6EA" />
      <stop offset="1" stop-color="#F0E3CA" />
    </linearGradient>
    <linearGradient id="accent" x1="282" y1="204" x2="752" y2="782" gradientUnits="userSpaceOnUse">
      <stop stop-color="rgb(177, 168, 233)" />
      <stop offset="1" stop-color="rgb(149, 137, 225)" />
    </linearGradient>
  </defs>
  <rect width="1024" height="1024" rx="120" fill="url(#bg)" />
  <circle cx="512" cy="528" r="276" fill="rgba(255,255,255,0.54)" />
  <ellipse cx="512" cy="772" rx="188" ry="46" fill="rgba(73, 58, 31, 0.08)" />
  <circle cx="512" cy="468" r="198" fill="url(#accent)" opacity="0.18" />
  <circle cx="512" cy="474" r="168" fill="#FFD85F" />
  <ellipse cx="436" cy="468" rx="52" ry="64" fill="rgba(255,255,255,0.25)" />
  <ellipse cx="588" cy="468" rx="52" ry="64" fill="rgba(255,255,255,0.25)" />
  <circle cx="448" cy="480" r="18" fill="#3C2A1D" />
  <circle cx="576" cy="480" r="18" fill="#3C2A1D" />
  <circle cx="442" cy="474" r="5" fill="#FFF7EF" />
  <circle cx="570" cy="474" r="5" fill="#FFF7EF" />
  <ellipse cx="512" cy="556" rx="28" ry="20" fill="#F58C43" />
  <path d="M512 540L478 564H546L512 540Z" fill="#F2A250" />
  <ellipse cx="430" cy="548" rx="18" ry="12" fill="#F5B0A3" opacity="0.7" />
  <ellipse cx="594" cy="548" rx="18" ry="12" fill="#F5B0A3" opacity="0.7" />
  <path d="M468 336C484 296 518 276 546 286C542 328 514 354 468 336Z" fill="#8f83df" opacity="0.92" />
  <path d="M556 332C576 302 614 294 640 310C620 340 590 356 556 332Z" fill="rgb(177, 168, 233)" opacity="0.95" />
  <circle cx="724" cy="276" r="92" fill="#FFFFFF" />
  <circle cx="724" cy="276" r="76" fill="#8f83df" opacity="0.16" />
  <text x="724" y="308" text-anchor="middle" font-size="84">✨</text>
  <rect x="202" y="820" width="620" height="86" rx="32" fill="rgba(91, 73, 40, 0.09)" />
  <text x="512" y="876" text-anchor="middle" fill="#5A4C31" font-size="46" font-weight="800" font-family="Avenir Next, Pretendard Variable, Apple SD Gothic Neo, sans-serif">야식 수집가</text>
</svg>