<svg xmlns="http://www.w3.org/2000/svg" viewBox="0 0 256 256">
<defs><radialGradient id="glow"><stop stop-color="#faffff"/><stop offset=".45" stop-color="#b9edfa"/><stop offset="1" stop-color="#8bd3ef" stop-opacity="0"/></radialGradient></defs>
<ellipse cx="128" cy="225" rx="75" ry="14" fill="#557348" opacity=".22"/><circle cx="128" cy="119" r="78" fill="url(#glow)"/>
<path d="m83 198 45 23 45-23-45-19z" fill="#adc8d2" stroke="#769baa" stroke-width="6"/><path d="m113 186 15 21 15-21V94h-30z" fill="#9bb8c7" stroke="#678e9d" stroke-width="6"/>
<path d="m128 43 46 56-46 72-46-72z" fill="#d6f5fb" fill-opacity=".85" stroke="#79b8d1" stroke-width="7" stroke-linejoin="round"/><path d="m128 43-15 56 15 72 15-72zm-46 56h92" fill="none" stroke="#8cd3e7" stroke-width="5"/>
<path d="m119 90 9-25 9 25-9 24z" fill="#fff" opacity=".89"/><path d="M64 96v17m-8-8h16m122 19v16m-8-8h16" stroke="#f7ffff" stroke-width="5" stroke-linecap="round"/>
</svg>
