<svg xmlns="http://www.w3.org/2000/svg" width="390" height="700" viewBox="0 0 390 700">
  <rect width="390" height="700" fill="#cee8bc"/>
  <ellipse cx="195" cy="354" rx="220" ry="310" fill="#dceec7"/>
  <path d="M0 0h390v116q-39-9-70 10-36 16-76-3-44-21-89 2-34 15-69-8Q39 103 0 120Z" fill="#a9cfa9"/>
  <g fill="#91bc9b">
    <circle cx="4" cy="80" r="78"/><circle cx="92" cy="16" r="67"/>
    <circle cx="216" cy="-10" r="67"/><circle cx="363" cy="39" r="83"/>
    <circle cx="-20" cy="331" r="61"/><circle cx="410" cy="344" r="60"/>
    <circle cx="-18" cy="635" r="77"/><circle cx="407" cy="631" r="77"/>
  </g>
  <g fill="#b4d7ad">
    <circle cx="12" cy="158" r="37"/><circle cx="377" cy="159" r="42"/>
    <circle cx="14" cy="437" r="37"/><circle cx="379" cy="459" r="39"/>
    <circle cx="63" cy="660" r="35"/><circle cx="335" cy="665" r="36"/>
  </g>
  <path d="M184 700q-17-78 7-131t7-56" fill="none" stroke="#e8d6af" stroke-width="67" stroke-linecap="round"/>
  <path d="M184 700q-17-78 7-131t7-56" fill="none" stroke="#f1dfbd" stroke-width="44" stroke-linecap="round"/>
  <g fill="#fff6dd">
    <circle cx="42" cy="285" r="5"/><circle cx="52" cy="281" r="5"/>
    <circle cx="345" cy="269" r="5"/><circle cx="355" cy="265" r="5"/>
    <circle cx="52" cy="525" r="5"/><circle cx="338" cy="533" r="5"/>
  </g>
</svg>
