<?xml version="1.0" encoding="UTF-8"?>
<svg width="1024" height="1024" viewBox="0 0 1024 1024" fill="none" xmlns="http://www.w3.org/2000/svg">
  <defs>
    <linearGradient id="bg" x1="112" y1="88" x2="930" y2="930" gradientUnits="userSpaceOnUse">
      <stop stop-color="#1f3f31" />
      <stop offset="1" stop-color="#f0cb84" />
    </linearGradient>
    <radialGradient id="glow" cx="0" cy="0" r="1" gradientUnits="userSpaceOnUse" gradientTransform="translate(512 534) rotate(90) scale(412 412)">
      <stop stop-color="#FFF5D7" stop-opacity="0.95" />
      <stop offset="0.56" stop-color="#F7EACA" stop-opacity="0.42" />
      <stop offset="1" stop-color="#F7EACA" stop-opacity="0" />
    </radialGradient>
    <linearGradient id="accent" x1="280" y1="296" x2="750" y2="802" gradientUnits="userSpaceOnUse">
      <stop stop-color="#ffe996" />
      <stop offset="1" stop-color="#b79340" />
    </linearGradient>
  </defs>
  <rect width="1024" height="1024" rx="88" fill="url(#bg)" />
  <circle cx="192" cy="188" r="54" fill="rgba(255,255,255,0.08)" />
  <circle cx="314" cy="142" r="38" fill="rgba(255,255,255,0.06)" />
  <circle cx="836" cy="202" r="42" fill="rgba(255,255,255,0.08)" />
  <circle cx="852" cy="808" r="66" fill="rgba(255,255,255,0.08)" />
  <circle cx="156" cy="798" r="58" fill="rgba(255,255,255,0.06)" />
  <rect x="94" y="118" width="836" height="788" rx="66" fill="url(#glow)" />
  <path d="M310 920C358 862 406 844 510 844C620 844 676 860 724 920" stroke="rgba(63, 82, 61, 0.14)" stroke-width="22" stroke-linecap="round"/>
  <ellipse cx="488" cy="698" rx="236" ry="72" fill="rgba(16, 26, 20, 0.14)" />
  <circle cx="488" cy="566" r="228" fill="#FDF7E9" />
  <circle cx="488" cy="566" r="176" fill="#F3E7D1" />
  <circle cx="488" cy="566" r="136" fill="url(#accent)" />
  <circle cx="488" cy="566" r="118" fill="#e7c370" opacity="0.24" />
  <text x="488" y="576" text-anchor="middle" font-size="178">🍝</text>
  <rect x="96" y="118" width="136" height="136" rx="42" fill="rgba(255,250,236,0.96)" />
  <text x="164" y="200" text-anchor="middle" font-size="74">💛</text>
  <circle cx="796" cy="214" r="56" fill="rgba(255, 250, 236, 0.24)" />
  <text x="796" y="230" text-anchor="middle" font-size="72">📸</text>
  <rect x="120" y="786" width="784" height="144" rx="42" fill="rgba(16, 24, 19, 0.52)" />
  <text x="164" y="846" fill="#FFF5E0" font-size="40" font-weight="800" font-family="Avenir Next, Pretendard Variable, Apple SD Gothic Neo, sans-serif">파스타</text>
  <text x="164" y="892" fill="#F8E4B9" font-size="28" font-weight="600" font-family="Avenir Next, Pretendard Variable, Apple SD Gothic Neo, sans-serif">만족 리뷰 · guest cut</text>
</svg>